<svg width="24" height="24" viewBox="0 0 24 24" fill="none" xmlns="http://www.w3.org/2000/svg">
<path d="M0.000181827 11.9904C0.000181827 18.2141 5.36257 24 12.0002 24C12.6027 23.9882 13.1899 23.9491 13.7095 23.8745C15.1762 23.6508 15.5195 22.8554 15.4615 22.1961C15.4319 21.8611 15.2757 21.5592 15.0235 21.3616C14.7832 21.1734 14.4506 21.0574 13.9605 21.1319C13.893 21.1473 13.8173 21.1533 13.7521 21.1627C13.1898 21.2716 12.6039 21.3509 12.0002 21.3509C6.84022 21.3509 2.6591 17.1477 2.6591 11.9891C2.6591 6.84139 6.84022 2.64879 12.0002 2.64879C17.1483 2.64879 21.3413 6.84018 21.3413 11.9891C21.3413 13.1503 21.1341 14.2511 20.7577 15.262C20.0545 16.9239 22.3013 18.0058 23.1974 16.3143C23.8201 14.9969 23.9905 13.2948 24 11.9881C24 5.36316 18.6376 0 12 0C5.04419 0.113633 0.0984898 6.06647 0 11.9881L0.000181827 11.9904Z" fill="url(#paint0_angular)"/>
<defs>
<radialGradient id="paint0_angular" cx="0" cy="0" r="1" gradientUnits="userSpaceOnUse" gradientTransform="translate(12 12) rotate(90) scale(12)">
<stop offset="0.0554897" stop-color="white" stop-opacity="0.01"/>
<stop offset="0.148719" stop-color="white"/>
</radialGradient>
</defs>
</svg>
