<svg width="54" height="32" viewBox="0 0 54 32" fill="none" xmlns="http://www.w3.org/2000/svg">
<path d="M33.5749 5.5752H20.8118V26.4212H33.5749V5.5752Z" fill="#FF5F00"/>
<path d="M22.1264 16C22.1248 13.9927 22.5799 12.0114 23.4571 10.2059C24.3343 8.40046 25.6107 6.81818 27.1897 5.57885C25.234 4.0419 22.8854 3.08616 20.4122 2.82086C17.9391 2.55557 15.4412 2.99142 13.204 4.07861C10.9668 5.1658 9.08068 6.86046 7.76108 8.96891C6.44149 11.0774 5.7417 13.5145 5.7417 16.0019C5.7417 18.4892 6.44149 20.9264 7.76108 23.0348C9.08068 25.1433 10.9668 26.8379 13.204 27.9251C15.4412 29.0123 17.9391 29.4482 20.4122 29.1829C22.8854 28.9176 25.234 27.9618 27.1897 26.4249C25.6102 25.1852 24.3335 23.6023 23.4563 21.7962C22.579 19.99 22.1243 18.0079 22.1264 16Z" fill="#EB001B"/>
<path d="M47.3729 24.2155V23.7883H47.557V23.7H47.1188V23.7883H47.2919V24.2155H47.3729ZM48.2236 24.2155V23.7H48.091L47.9363 24.0682L47.7817 23.7H47.6491V24.2155H47.7448V23.8252L47.8885 24.1602H47.9879L48.1315 23.8252V24.2155H48.2236Z" fill="#F79E1B"/>
<path d="M48.6396 16C48.6396 18.4875 47.9396 20.9248 46.6198 23.0334C45.3 25.1419 43.4135 26.8365 41.1761 27.9235C38.9386 29.0106 36.4405 29.4461 33.9672 29.1805C31.4939 28.9148 29.1452 27.9586 27.1897 26.4212C28.7681 25.1807 30.0441 23.598 30.9216 21.7924C31.799 19.9869 32.2549 18.0056 32.2549 15.9981C32.2549 13.9907 31.799 12.0094 30.9216 10.2038C30.0441 8.39828 28.7681 6.81557 27.1897 5.57513C29.1452 4.0377 31.4939 3.0815 33.9672 2.81582C36.4405 2.55015 38.9386 2.98572 41.1761 4.07275C43.4135 5.15979 45.3 6.85442 46.6198 8.96293C47.9396 11.0715 48.6396 13.5088 48.6396 15.9963V16Z" fill="#F79E1B"/>
</svg>
