<svg width="54" height="32" viewBox="0 0 54 32" fill="none" xmlns="http://www.w3.org/2000/svg">
<path fill-rule="evenodd" clip-rule="evenodd" d="M15.6338 22.5576H11.8374L8.9906 11.6968C8.85548 11.1972 8.56858 10.7555 8.14655 10.5473C7.09334 10.0242 5.93277 9.60789 4.66669 9.39791V8.97977H10.7824C11.6264 8.97977 12.2595 9.60789 12.365 10.3374L13.8421 18.1716L17.6366 8.97977H21.3275L15.6338 22.5576ZM23.4376 22.5576H19.8522L22.8045 8.97977H26.3899L23.4376 22.5576ZM31.0285 12.7412C31.134 12.0099 31.7671 11.5918 32.5056 11.5918C33.6662 11.4868 34.9304 11.6968 35.9855 12.2181L36.6185 9.29474C35.5634 8.8766 34.4029 8.66663 33.3497 8.66663C29.8698 8.66663 27.3376 10.5474 27.3376 13.1576C27.3376 15.1433 29.1312 16.1859 30.3973 16.814C31.7671 17.4403 32.2946 17.8585 32.1891 18.4848C32.1891 19.4242 31.134 19.8424 30.0808 19.8424C28.8147 19.8424 27.5486 19.5292 26.3899 19.0061L25.7569 21.9313C27.023 22.4526 28.3927 22.6626 29.6588 22.6626C33.5607 22.7658 35.9855 20.8868 35.9855 18.0666C35.9855 14.5152 31.0285 14.307 31.0285 12.7412ZM48.5333 22.5576L45.6865 8.97977H42.6287C41.9956 8.97977 41.3626 9.39791 41.1516 10.0242L35.88 22.5576H39.5708L40.3075 20.5737H44.8425L45.2645 22.5576H48.5333ZM43.1563 12.6363L44.2095 17.7535H41.2571L43.1563 12.6363Z" fill="#172B85"/>
</svg>
